<svg width="19" height="21" viewBox="0 0 19 21" fill="none" xmlns="http://www.w3.org/2000/svg">
<path d="M17.1875 1.5625H14.8438V0.78125C14.8438 0.57405 14.7614 0.375336 14.6149 0.228823C14.4684 0.08231 14.2697 0 14.0625 0C13.8553 0 13.6566 0.08231 13.5101 0.228823C13.3636 0.375336 13.2812 0.57405 13.2812 0.78125V1.5625H5.46875V0.78125C5.46875 0.57405 5.38644 0.375336 5.23993 0.228823C5.09341 0.08231 4.8947 0 4.6875 0C4.4803 0 4.28159 0.08231 4.13507 0.228823C3.98856 0.375336 3.90625 0.57405 3.90625 0.78125V1.5625H1.5625C1.1481 1.5625 0.750671 1.72712 0.457646 2.02015C0.16462 2.31317 0 2.7106 0 3.125V18.75C0 19.1644 0.16462 19.5618 0.457646 19.8549C0.750671 20.1479 1.1481 20.3125 1.5625 20.3125H17.1875C17.6019 20.3125 17.9993 20.1479 18.2924 19.8549C18.5854 19.5618 18.75 19.1644 18.75 18.75V3.125C18.75 2.7106 18.5854 2.31317 18.2924 2.02015C17.9993 1.72712 17.6019 1.5625 17.1875 1.5625ZM13.4273 11.5039L8.86719 15.8008C8.79624 15.8703 8.71221 15.9251 8.61995 15.962C8.52769 15.9989 8.42903 16.0171 8.32969 16.0156C8.12969 16.0163 7.93724 15.9393 7.79297 15.8008L5.32188 13.457C5.24365 13.3874 5.18021 13.3028 5.13533 13.2082C5.09045 13.1136 5.06505 13.011 5.06063 12.9063C5.0562 12.8017 5.07286 12.6973 5.10959 12.5992C5.14633 12.5012 5.20241 12.4115 5.27448 12.3356C5.34656 12.2596 5.43316 12.1989 5.52916 12.1571C5.62515 12.1153 5.72857 12.0932 5.83327 12.0921C5.93797 12.0911 6.04182 12.1111 6.13864 12.151C6.23546 12.1908 6.32328 12.2497 6.39687 12.3242L8.32969 14.1602L12.3531 10.3711C12.4269 10.2994 12.5143 10.2432 12.6101 10.2058C12.706 10.1683 12.8083 10.1504 12.9112 10.1531C13.014 10.1558 13.1153 10.1791 13.209 10.2214C13.3028 10.2638 13.3871 10.3245 13.457 10.4C13.5994 10.5504 13.6762 10.7511 13.6707 10.9581C13.6651 11.1651 13.5776 11.3614 13.4273 11.5039ZM17.1875 6.25H1.5625V3.125H3.90625V3.90625C3.90625 4.11345 3.98856 4.31216 4.13507 4.45868C4.28159 4.60519 4.4803 4.6875 4.6875 4.6875C4.8947 4.6875 5.09341 4.60519 5.23993 4.45868C5.38644 4.31216 5.46875 4.11345 5.46875 3.90625V3.125H13.2812V3.90625C13.2812 4.11345 13.3636 4.31216 13.5101 4.45868C13.6566 4.60519 13.8553 4.6875 14.0625 4.6875C14.2697 4.6875 14.4684 4.60519 14.6149 4.45868C14.7614 4.31216 14.8438 4.11345 14.8438 3.90625V3.125H17.1875V6.25Z" fill="#B6B6B6"/>
</svg>
