<svg width="21" height="21" viewBox="0 0 21 21" fill="none" xmlns="http://www.w3.org/2000/svg">
<path d="M14.5833 0H2.08333C1.53105 0.000826562 1.00163 0.220585 0.611107 0.611107C0.220585 1.00163 0.000826562 1.53105 0 2.08333V17.7083C0.000827307 18.5369 0.330333 19.3313 0.916205 19.9171C1.50208 20.503 2.29645 20.8325 3.125 20.8333H15.625C15.9013 20.8333 16.1662 20.7236 16.3616 20.5282C16.5569 20.3329 16.6667 20.0679 16.6667 19.7917V2.08333C16.6658 1.53105 16.4461 1.00163 16.0556 0.611107C15.665 0.220585 15.1356 0.000826562 14.5833 0ZM4.6875 4.16667H7.8125C8.08877 4.16667 8.35372 4.27641 8.54907 4.47176C8.74442 4.66711 8.85417 4.93207 8.85417 5.20833C8.85417 5.4846 8.74442 5.74955 8.54907 5.9449C8.35372 6.14025 8.08877 6.25 7.8125 6.25H4.6875C4.41123 6.25 4.14628 6.14025 3.95093 5.9449C3.75558 5.74955 3.64583 5.4846 3.64583 5.20833C3.64583 4.93207 3.75558 4.66711 3.95093 4.47176C4.14628 4.27641 4.41123 4.16667 4.6875 4.16667ZM11.9792 17.1875H4.6875C4.41123 17.1875 4.14628 17.0778 3.95093 16.8824C3.75558 16.6871 3.64583 16.4221 3.64583 16.1458C3.64583 15.8696 3.75558 15.6046 3.95093 15.4093C4.14628 15.2139 4.41123 15.1042 4.6875 15.1042H11.9792C12.2554 15.1042 12.5204 15.2139 12.7157 15.4093C12.9111 15.6046 13.0208 15.8696 13.0208 16.1458C13.0208 16.4221 12.9111 16.6871 12.7157 16.8824C12.5204 17.0778 12.2554 17.1875 11.9792 17.1875ZM11.9792 13.5417H4.6875C4.41123 13.5417 4.14628 13.4319 3.95093 13.2366C3.75558 13.0412 3.64583 12.7763 3.64583 12.5C3.64583 12.2237 3.75558 11.9588 3.95093 11.7634C4.14628 11.5681 4.41123 11.4583 4.6875 11.4583H11.9792C12.2554 11.4583 12.5204 11.5681 12.7157 11.7634C12.9111 11.9588 13.0208 12.2237 13.0208 12.5C13.0208 12.7763 12.9111 13.0412 12.7157 13.2366C12.5204 13.4319 12.2554 13.5417 11.9792 13.5417ZM11.9792 9.89583H4.6875C4.41123 9.89583 4.14628 9.78609 3.95093 9.59074C3.75558 9.39539 3.64583 9.13043 3.64583 8.85417C3.64583 8.5779 3.75558 8.31295 3.95093 8.1176C4.14628 7.92225 4.41123 7.8125 4.6875 7.8125H11.9792C12.2554 7.8125 12.5204 7.92225 12.7157 8.1176C12.9111 8.31295 13.0208 8.5779 13.0208 8.85417C13.0208 9.13043 12.9111 9.39539 12.7157 9.59074C12.5204 9.78609 12.2554 9.89583 11.9792 9.89583Z" fill="url(#paint0_linear_348_6)"/>
<path d="M17.708 20.8333H15.6247C15.3484 20.8333 15.0835 20.7236 14.8881 20.5282C14.6928 20.3329 14.583 20.0679 14.583 19.7917V7.29167C14.583 7.0154 14.6928 6.75045 14.8881 6.5551C15.0835 6.35975 15.3484 6.25 15.6247 6.25H19.7913C20.0676 6.25 20.3326 6.35975 20.5279 6.5551C20.7233 6.75045 20.833 7.0154 20.833 7.29167V17.7083C20.8322 18.5369 20.5027 19.3313 19.9168 19.9171C19.3309 20.503 18.5366 20.8325 17.708 20.8333ZM16.6663 18.75H17.708C17.9843 18.75 18.2492 18.6403 18.4446 18.4449C18.6399 18.2496 18.7497 17.9846 18.7497 17.7083V8.33333H16.6663V18.75Z" fill="url(#paint1_linear_348_6)"/>
<defs>
<linearGradient id="paint0_linear_348_6" x1="0.4" y1="11" x2="16.4036" y2="11.3201" gradientUnits="userSpaceOnUse">
<stop stop-color="#4C72FA"/>
<stop offset="1" stop-color="#39D9F9"/>
</linearGradient>
<linearGradient id="paint1_linear_348_6" x1="14.733" y1="13.95" x2="20.7361" y2="14.0143" gradientUnits="userSpaceOnUse">
<stop stop-color="#4C72FA"/>
<stop offset="1" stop-color="#39D9F9"/>
</linearGradient>
</defs>
</svg>
