<svg width="501" height="72" viewBox="0 0 501 72" fill="none" xmlns="http://www.w3.org/2000/svg">
<path d="M143.38 0.392001C143.282 1.176 140.538 9.016 140.538 16.072V54.488C140.538 61.544 143.282 69.384 143.38 70.168V70.56H120.448V70.168C120.546 69.384 123.192 61.544 123.192 54.488V13.72L102.416 70.56H97.026L74.388 13.916C74.29 14.7 74.29 15.386 74.29 16.17V46.844C74.29 57.232 79.582 68.796 79.778 69.972V70.56H64V69.972C64.196 68.796 69.488 57.232 69.488 46.844V16.17C69.488 9.114 65.47 1.176 65.274 0.392001V0H86.442L105.846 47.432L123.192 0H143.38V0.392001ZM151.14 70.56V70.168C151.238 69.384 153.982 61.544 153.982 54.488V16.072C153.982 9.016 151.238 1.176 151.14 0.392001V0H174.17V0.392001C173.974 1.176 171.328 9.016 171.328 16.072V54.488C171.328 61.544 173.974 69.384 174.17 70.168V70.56H151.14ZM247.311 0V0.588003C247.115 1.764 241.823 13.328 241.823 23.716V70.56H230.847L192.039 13.72V46.844C192.039 57.232 197.331 68.796 197.625 69.972V70.56H181.749V69.972C181.945 68.796 187.237 57.232 187.237 46.844V16.856C187.237 9.506 183.121 1.274 182.925 0.392001V0H203.995L237.021 48.804V23.716C237.021 13.328 231.729 1.764 231.533 0.588003V0H247.311ZM306.337 51.842H306.827V70.56H254.201V70.168C254.299 69.384 257.043 61.544 257.043 54.488V16.072C257.043 9.016 254.299 1.176 254.201 0.392001V0H306.533V18.718H306.043C304.965 18.13 294.871 4.31199 285.757 4.31199H274.389V32.634H277.623C286.639 32.634 296.635 27.44 297.615 27.244H298.105V41.748H297.615C296.635 41.552 286.639 36.358 277.623 36.358H274.389V66.248H286.051C295.165 66.248 305.259 52.43 306.337 51.842ZM365.568 47.334C370.86 56.35 373.114 64.288 379.582 70.07V70.56H358.806C355.964 68.11 352.24 59.682 349.398 52.92C344.89 42.434 339.206 38.612 335.972 37.926H334.012V54.488C334.012 61.544 336.756 69.384 336.854 70.168V70.56H313.824V70.168C313.922 69.384 316.666 61.544 316.666 54.488V16.072C316.666 9.016 313.922 1.176 313.824 0.392001V0H347.83C361.746 0 371.154 7.546 371.154 18.228C371.154 29.596 362.628 35.28 349.888 36.26C356.552 37.632 361.844 41.16 365.568 47.334ZM334.012 3.82199V33.614H341.656C349.104 33.614 352.632 28.42 352.632 19.11C352.632 10.192 349.202 3.82199 341.852 3.82199H334.012ZM334.404 37.828H334.894C334.698 37.828 334.6 37.828 334.404 37.828ZM441.908 0V0.392001C441.614 1.274 435.636 12.544 432.206 22.246L415.056 70.56H400.552L379.972 16.758C377.13 9.506 372.132 1.372 371.838 0.49V0H398.984V0.392001C398.788 1.274 396.044 9.506 398.788 16.758L414.468 58.212L427.992 19.992C431.03 11.27 427.404 1.56799 427.11 0.49V0H441.908ZM492.804 53.802C495.45 61.054 498.096 66.248 500.938 70.168V70.56H473.988V70.168C474.282 69.286 476.83 61.054 474.086 53.802L471.44 46.648H446.94L445.568 50.568C442.53 59.29 446.842 68.992 447.136 70.07V70.56H431.75V70.168C433.808 66.346 437.826 58.016 441.256 48.314L453.8 13.132C455.76 7.44799 452.428 0.980003 452.232 0.294002V0H472.616L492.804 53.802ZM448.606 42.042H469.676L458.896 12.838L448.606 42.042Z" fill="#000000"/>
<path d="M14.6883 43.0272C9.34698 41.6918 4.74753 38.4277 1.4834 34.125V59.6446C11.2758 53.8581 14.0948 45.4011 14.6883 43.0272Z" fill="#000000"/>
<path d="M20.4748 43.769C19.5845 43.769 18.5459 43.769 17.6557 43.6206C17.0623 46.2913 13.7981 56.6772 1.63184 63.0571V71.2174C12.0177 71.2174 21.5133 66.9147 28.3383 60.0897C35.015 53.413 39.1693 44.2141 39.4661 34.125C35.1633 39.9114 28.19 43.769 20.4748 43.769Z" fill="#000000"/>
<path d="M31.8997 3.56087C28.6355 1.33533 24.7779 0 20.4752 0C16.3209 0 12.3149 1.33533 9.05078 3.4125C11.8698 3.70924 16.0241 4.74783 20.4752 9.19891C24.6296 4.74783 29.0807 3.70924 31.8997 3.56087Z" fill="#000000"/>
<path d="M21.662 12.4631C21.3652 12.7598 20.9201 12.9082 20.475 13.0565C20.0299 13.0565 19.5848 12.9082 19.288 12.6114C11.7212 4.15437 6.825 7.27013 5.48967 6.67665C2.07717 10.3859 0 15.2821 0 20.6234C0 31.8995 9.19891 41.0984 20.475 41.0984C31.7511 41.0984 40.95 31.8995 40.95 20.6234C40.95 15.2821 38.8728 10.2375 35.4603 6.67665C34.125 7.12176 28.0418 4.59948 21.662 12.4631ZM10.5342 22.7005C8.01195 22.7005 6.08315 20.7717 6.08315 18.2495C6.08315 15.8756 8.01195 13.7984 10.5342 13.7984C13.0565 13.7984 14.9853 15.8756 14.9853 18.2495C14.9853 20.7717 13.0565 22.7005 10.5342 22.7005ZM20.475 30.119L17.3592 22.7005H23.7391L20.475 30.119ZM30.4158 22.7005C27.8935 22.7005 25.9647 20.7717 25.9647 18.2495C25.9647 15.8756 27.8935 13.7984 30.4158 13.7984C32.938 13.7984 34.8668 15.8756 34.8668 18.2495C34.8668 20.7717 32.7897 22.7005 30.4158 22.7005Z" fill="#000000"/>
</svg>